<?xml version="1.0" encoding="utf-8"?>
<!-- Generator: Adobe Illustrator 19.1.0, SVG Export Plug-In . SVG Version: 6.00 Build 0)  -->
<svg version="1.1" id="Layer_1" xmlns="http://www.w3.org/2000/svg" xmlns:xlink="http://www.w3.org/1999/xlink" x="0px" y="0px"
	 viewBox="0 0 18 18" style="enable-background:new 0 0 18 18;" xml:space="preserve">
<style type="text/css">
	.st0{fill:#B2B2B2;}
</style>
<path class="st0" d="M9,0C4,0,0,4,0,9c0,5,4,9,9,9c5,0,9-4,9-9C18,4,14,0,9,0z M11.1,13.1c-0.1,0.2-0.2,0-0.4,0L5,13c0,0,0,0,0,0
	c-0.1,0-0.2,0.2-0.3,0.1C4.5,13,4.5,13,4.5,12.9l0.1-5.7c0-0.2,0.1-0.3,0.3-0.4c0.2-0.1,0.4,0,0.5,0.1l5.6,5.6
	C11.2,12.7,11.2,12.9,11.1,13.1z M13.2,10.9c0,0.2-0.1,0.4-0.3,0.4c-0.1,0-0.1,0-0.2,0c-0.1,0-0.2,0-0.3-0.1L6.8,5.6
	C6.6,5.5,6.6,5.3,6.7,5.1c0.1-0.2,0.2-0.3,0.4-0.3L13,4.5c0.1,0,0.3,0,0.4,0.1c0.1,0.1,0.1,0.2,0.1,0.4L13.2,10.9z"/>
</svg>
