<?xml version="1.0" encoding="utf-8"?>
<!-- Generator: Adobe Illustrator 19.1.0, SVG Export Plug-In . SVG Version: 6.00 Build 0)  -->
<svg version="1.1" id="Layer_1" xmlns="http://www.w3.org/2000/svg" xmlns:xlink="http://www.w3.org/1999/xlink" x="0px" y="0px"
	 viewBox="0 0 16 12" style="enable-background:new 0 0 16 12;" xml:space="preserve">
<style type="text/css">
	.st0{fill:#333333;}
</style>
<g>
	<g id="folder">
		<path class="st0" d="M13.9,12H2.1c-1.1,0-1.9-0.8-1.9-1.8V1.8C0.2,0.8,1,0,2.1,0h4.6l1.5,1.4h5.7c1.1,0,1.9,0.8,1.9,1.8v6.9
			C15.8,11.2,15,12,13.9,12z M2.1,0.9c-0.6,0-1,0.4-1,0.9v8.3c0,0.5,0.5,0.9,1,0.9h11.8c0.6,0,1-0.4,1-0.9V3.2c0-0.5-0.5-0.9-1-0.9
			H7.8L6.3,0.9H2.1z"/>
	</g>
</g>
</svg>
