<?xml version="1.0" encoding="UTF-8"?>
<!DOCTYPE svg PUBLIC "-//W3C//DTD SVG 1.1//EN" "http://www.w3.org/Graphics/SVG/1.1/DTD/svg11.dtd">
<svg version="1.1" xmlns="http://www.w3.org/2000/svg" xmlns:xlink="http://www.w3.org/1999/xlink" x="0" y="0" width="20.769" height="18" viewBox="0, 0, 20.769, 18">
  <g id="Layer_1" transform="translate(-2, -6)">
    <path d="M21.385,6 L16.516,6 C15.752,6 14.873,6.389 14.462,7.385 C14.462,7.385 14.282,8.654 13.077,8.769 L3.385,8.769 C2.62,8.769 2,9.367 2,10.132 L2,22.615 C2,23.38 2.62,24 3.385,24 L21.385,24 C22.149,24 22.769,23.38 22.769,22.615 L22.769,11.538 L22.769,10.132 L22.769,7.385 C22.769,6.62 22.149,6 21.385,6 z M21.385,10.132 L21.385,11.538 L21.385,22.615 L3.385,22.615 L3.385,10.154 L13.077,10.154 C13.121,10.154 13.164,10.151 13.208,10.147 C14.507,10.024 15.31,9.114 15.681,8.179 C16.041,7.277 16.669,7.385 16.669,7.385 L21.385,7.385 L21.385,10.132 z M15.846,15.692 L13.077,15.692 L13.077,12.923 C13.077,12.541 12.767,12.231 12.385,12.231 C12.002,12.231 11.692,12.541 11.692,12.923 L11.692,15.692 L8.923,15.692 C8.541,15.692 8.231,16.002 8.231,16.385 C8.231,16.767 8.541,17.077 8.923,17.077 L11.692,17.077 L11.692,19.846 C11.692,20.228 12.002,20.538 12.385,20.538 C12.767,20.538 13.077,20.228 13.077,19.846 L13.077,17.077 L15.846,17.077 C16.228,17.077 16.538,16.767 16.538,16.385 C16.538,16.002 16.228,15.692 15.846,15.692 z" fill="#FFFFFF"/>
  </g>
</svg>
