<?xml version="1.0" encoding="UTF-8"?>
<!DOCTYPE svg PUBLIC "-//W3C//DTD SVG 1.1//EN" "http://www.w3.org/Graphics/SVG/1.1/DTD/svg11.dtd">
<svg version="1.1" xmlns="http://www.w3.org/2000/svg" xmlns:xlink="http://www.w3.org/1999/xlink" x="0" y="0" width="262.353" height="125.861" viewBox="0, 0, 262.353, 125.861">
  <g id="Layer_1" transform="translate(-59.568, -356.519)">
    <g>
      <path d="M121.607,356.519 L124.072,356.632 C136.36,357.44 147.589,362.338 157.479,369.481 C163.905,374.481 169.098,380.793 173.014,387.902 L293.321,387.902 C309.117,387.902 321.921,400.707 321.921,416.502 C321.921,432.298 309.117,445.102 293.321,445.102 L174.913,445.102 C165.476,468.263 144.405,480.888 119.755,482.38 C88.801,482.29 63.62,458.375 60.534,427.929 C61.14,430.776 60.845,429.705 61.274,431.179 C56.838,412.686 61.218,394.668 72.515,379.56 C85.501,363.552 101.428,357.373 121.607,356.519 L121.607,356.519 z M121.322,367.516 L121.322,367.516 C105.48,367.255 91.206,374.253 81.155,386.367 C64.236,407.841 67.928,438.964 89.402,455.884 C110.875,472.803 141.999,469.111 158.918,447.637 C175.837,426.164 172.145,395.04 150.671,378.121 C141.753,371.064 132.481,368.335 121.322,367.516 L121.322,367.516 z M292.815,398.459 L292.815,398.459 C282.85,398.46 274.772,406.538 274.772,416.502 C274.772,426.467 282.85,434.545 292.815,434.545 C302.78,434.545 310.858,426.467 310.858,416.502 C310.858,406.538 302.78,398.46 292.815,398.46 L292.815,398.459 z M187.27,405.625 Q182.163,405.626 179.344,408.753 Q176.524,411.88 176.524,417.561 Q176.524,422.114 178.851,424.513 Q181.179,426.913 185.773,426.913 Q190.879,426.913 193.689,423.785 Q196.498,420.658 196.498,414.977 Q196.498,410.424 194.181,408.025 Q191.864,405.626 187.27,405.625 L187.27,405.625 z M186.306,409.173 Q188.234,409.173 189.126,410.958 Q190.018,412.742 190.018,416.905 Q190.018,420.719 189.208,422.042 Q188.398,423.365 186.737,423.365 Q184.809,423.365 183.917,421.581 Q183.025,419.796 183.025,415.633 Q183.025,411.819 183.835,410.496 Q184.645,409.173 186.306,409.173 L186.306,409.173 z M210.054,405.625 Q204.948,405.626 202.128,408.753 Q199.308,411.88 199.308,417.561 Q199.308,422.114 201.636,424.513 Q203.963,426.913 208.557,426.913 Q213.663,426.913 216.473,423.785 Q219.283,420.658 219.283,414.977 Q219.283,410.424 216.965,408.025 Q214.648,405.626 210.054,405.625 L210.054,405.625 z M209.09,409.173 Q211.018,409.173 211.91,410.958 Q212.802,412.742 212.802,416.905 Q212.802,420.719 211.992,422.042 Q211.182,423.365 209.521,423.365 Q207.593,423.365 206.701,421.581 Q205.809,419.796 205.809,415.633 Q205.809,411.819 206.619,410.496 Q207.429,409.173 209.09,409.173 L209.09,409.173 z M257.981,405.625 Q253.449,405.626 250.895,407.358 Q248.342,409.091 248.342,412.004 Q248.342,414.075 249.624,415.397 Q250.906,416.72 253.9,417.869 Q256.689,418.935 257.95,419.632 Q259.211,420.33 259.211,421.499 Q259.211,422.504 258.493,422.934 Q257.776,423.365 256.484,423.365 Q253.326,423.365 249.244,421.622 Q248.24,422.852 248.24,424.124 Q248.26,425.826 249.942,426.369 Q251.623,426.913 255.581,426.913 Q259.868,426.913 262.38,425.272 Q264.892,423.631 264.892,420.555 Q264.892,418.279 263.446,416.884 Q262,415.49 258.576,414.321 Q255.643,413.275 254.833,412.598 Q254.023,411.921 254.023,410.999 Q254.023,410.117 254.628,409.645 Q255.233,409.173 256.484,409.173 Q258.842,409.173 263.272,411.122 Q264.441,409.625 264.441,408.168 Q264.441,406.795 262.759,406.21 Q261.077,405.626 257.981,405.625 z M237.165,405.646 Q235.771,405.646 233.71,406.23 Q231.649,406.815 229.413,408.21 Q229.516,406.712 229.413,405.851 Q223.179,406.036 222.636,406.261 Q222.092,406.487 222.092,407.225 Q222.092,408.046 222.461,408.866 Q223.815,408.866 224.358,409.912 Q224.902,410.958 224.902,416.7 Q224.902,420.309 224.799,423.693 L223.302,423.693 Q222.666,423.693 222.379,423.97 Q222.092,424.247 222.092,424.882 Q222.092,425.641 222.461,426.503 L232.12,426.502 Q232.982,426.503 233.279,426.215 Q233.577,425.928 233.577,425.21 Q233.577,424.37 233.228,423.693 L230.787,423.693 Q230.685,420.678 230.685,418.094 L230.685,413.972 Q230.685,411.265 231.526,410.414 Q232.367,409.563 233.823,409.563 Q235.545,409.563 236.314,410.988 Q237.083,412.414 237.083,416.597 L237.083,423.836 Q237.083,425.17 237.411,425.733 Q237.74,426.297 238.621,426.4 Q239.503,426.503 242.826,426.503 Q244.179,426.503 244.661,426.236 Q245.143,425.969 245.143,425.231 Q245.143,424.431 244.835,423.693 Q243.605,423.713 243.236,422.924 Q242.867,422.134 242.867,412.044 Q242.867,408.189 241.462,406.917 Q240.057,405.646 237.165,405.646 L237.165,405.646 z" fill="#FFFFFF"/>
      <path d="M81.491,406.22 L82.926,406.22 L84.956,400.047 Q86.002,400.355 86.894,400.847 Q87.786,401.339 88.248,401.975 Q88.709,402.611 88.709,405.113 L88.709,406.22 L95.641,406.22 Q95.99,407.041 95.99,407.963 Q95.99,408.743 95.702,409.009 Q95.415,409.276 94.595,409.276 L88.709,409.276 L88.709,417.377 Q88.709,420.904 89.304,422.175 Q89.899,423.447 91.283,423.498 Q92.667,423.549 94.657,422.524 Q95.251,423.324 95.251,424.349 Q95.251,425.744 93.785,426.226 Q92.319,426.708 89.222,426.708 Q85.838,426.708 84.392,425.354 Q82.947,424.001 82.947,420.104 L82.947,416.536 Q82.947,413.152 82.742,409.276 L80.65,409.276 Q80.281,408.394 80.281,407.492 Q80.281,406.795 80.557,406.507 Q80.834,406.22 81.491,406.22 z" fill="#FFFFFF"/>
      <path d="M105.71,415.326 L105.731,422.278 Q106.264,422.791 107.125,423.078 Q107.987,423.365 108.93,423.365 Q110.653,423.365 111.565,422.216 Q112.478,421.068 112.478,416.597 Q112.457,412.516 111.617,410.845 Q110.776,409.173 109.074,409.173 Q107.987,409.173 107.238,409.655 Q106.49,410.137 106.11,411.204 Q105.731,412.27 105.71,415.326 z M99.948,416.618 Q99.948,407.307 99.876,404.928 Q99.804,402.549 99.568,401.678 Q99.332,400.806 98.768,400.55 Q98.204,400.294 97.302,400.294 Q96.953,399.453 96.953,398.612 Q96.953,397.751 97.589,397.515 Q98.225,397.279 101.732,397.279 Q103.906,397.279 104.695,397.453 Q105.485,397.628 105.608,398.099 Q105.731,398.571 105.731,399.432 L105.362,407.041 Q106.613,406.425 108.202,406.025 Q109.791,405.626 111.596,405.626 Q114.959,405.626 116.959,407.717 Q118.958,409.809 118.958,414.895 Q118.958,420.883 116.139,423.898 Q113.319,426.913 108.499,426.913 Q106.818,426.913 105.474,426.636 Q104.131,426.359 103.393,426.031 L102.511,426.687 Q100.706,426.687 100.235,426.4 Q99.763,426.113 99.763,425.211 Q99.763,424.37 99.855,421.386 Q99.948,418.402 99.948,416.618 z" fill="#FFFFFF"/>
      <path d="M131.878,405.626 Q134.975,405.626 136.657,406.21 Q138.338,406.795 138.338,408.169 Q138.338,409.625 137.169,411.122 Q132.74,409.173 130.381,409.173 Q129.13,409.173 128.525,409.645 Q127.92,410.117 127.92,410.999 Q127.92,411.921 128.73,412.598 Q129.54,413.275 132.473,414.321 Q135.898,415.49 137.344,416.884 Q138.789,418.279 138.789,420.555 Q138.789,423.631 136.277,425.272 Q133.765,426.913 129.479,426.913 Q125.521,426.913 123.839,426.369 Q122.158,425.826 122.137,424.124 Q122.137,422.852 123.142,421.622 Q127.223,423.365 130.381,423.365 Q131.673,423.365 132.391,422.934 Q133.109,422.504 133.109,421.499 Q133.109,420.33 131.848,419.632 Q130.586,418.935 127.797,417.869 Q124.803,416.72 123.521,415.398 Q122.24,414.075 122.24,412.004 Q122.24,409.091 124.793,407.358 Q127.346,405.626 131.878,405.626 z" fill="#FFFFFF"/>
      <path d="M150.171,422.462 Q150.827,422.852 151.535,423.108 Q152.243,423.365 153.309,423.365 Q155.093,423.365 156.006,422.145 Q156.918,420.924 156.918,416.884 Q156.918,412.086 155.985,410.629 Q155.052,409.173 153.391,409.173 Q152.427,409.173 151.627,409.676 Q150.827,410.178 150.499,411.306 Q150.171,412.434 150.171,414.423 z M148.51,405.851 Q148.613,406.63 148.51,407.553 Q150.253,406.712 151.966,406.169 Q153.678,405.626 155.688,405.626 Q159.646,405.626 161.522,407.81 Q163.399,409.994 163.399,414.711 Q163.399,421.047 160.599,423.98 Q157.8,426.913 153.124,426.913 Q151.955,426.913 151.248,426.831 Q150.54,426.749 150.171,426.667 Q150.171,429.702 150.274,432.716 L153.124,432.716 Q153.473,433.393 153.473,434.234 Q153.473,434.952 153.176,435.239 Q152.878,435.526 152.017,435.526 L141.948,435.526 Q141.578,434.665 141.578,433.906 Q141.578,433.27 141.866,432.993 Q142.153,432.716 142.788,432.716 L144.286,432.716 Q144.388,429.702 144.388,424.677 L144.388,416.7 Q144.388,410.958 143.845,409.912 Q143.301,408.866 141.948,408.866 Q141.578,408.046 141.578,407.225 Q141.578,406.487 142.122,406.261 Q142.665,406.036 148.51,405.851 z" fill="#FFFFFF"/>
    </g>
  </g>
</svg>
