<?xml version="1.0" encoding="UTF-8"?>
<!DOCTYPE svg PUBLIC "-//W3C//DTD SVG 1.1//EN" "http://www.w3.org/Graphics/SVG/1.1/DTD/svg11.dtd">
<svg version="1.1" xmlns="http://www.w3.org/2000/svg" xmlns:xlink="http://www.w3.org/1999/xlink" x="0" y="0" width="263.527" height="72.146" viewBox="0, 0, 263.527, 72.146">
  <g id="Layer_1" transform="translate(-331.839, -327.521)">
    <g>
      <path d="M387.25,327.521 C388.256,327.697 388.769,328.323 388.87,329.314 L388.87,332.376 L414.117,329.347 C415.237,329.212 416.146,330.011 416.146,331.132 L416.145,331.79 L393.114,334.553 C390.232,335.179 387.768,337.16 387.563,340.311 L346.751,345.208 L346.76,345.213 C345.686,345.321 344.943,346.168 344.897,347.232 C344.897,348.356 345.809,349.268 346.933,349.268 L346.997,349.262 L346.998,349.268 C347.18,349.246 347.072,349.259 347.32,349.229 C347.328,349.228 347.336,349.227 347.343,349.227 C347.344,349.226 347.345,349.226 347.345,349.226 C352.47,348.604 350.524,348.84 353.183,348.518 L353.198,348.525 L391.599,343.917 L391.599,340.854 C391.599,339.734 392.508,338.717 393.628,338.582 L419.718,335.451 L419.717,335.449 L423.359,335.012 L423.768,335.004 C424.774,335.18 425.287,335.807 425.388,336.797 L425.388,387.751 C425.388,388.871 424.479,389.889 423.359,390.023 L343.109,399.653 C342.531,399.71 342.151,399.597 341.717,399.215 L341.678,399.22 C341.613,399.145 341.66,399.199 341.538,399.058 C341.409,398.945 341.447,399.005 341.399,398.896 C338.353,395.355 335.307,391.815 332.261,388.274 L332.261,388.271 C331.908,387.997 331.879,387.512 331.839,387.111 L331.839,341.249 C331.839,340.128 332.747,339.111 333.867,338.977 L355.057,336.434 L355.057,333.371 C355.057,332.251 355.965,331.233 357.086,331.099 L386.841,327.528 L387.25,327.521 z" fill="#FFFFFF"/>
      <path d="M448.381,358.273 C448.922,358.747 449.632,359.863 449.632,361.756 L449.632,373.016 C450.274,373.117 451.086,373.185 451.829,373.185 C452.607,373.185 453.452,373.117 454.061,373.016 L454.061,362.23 C454.771,361.012 455.718,360.133 457.24,360.133 C457.747,360.167 458.288,360.201 458.795,360.37 C459.539,359.153 459.877,357.327 459.877,356.245 C459.234,356.076 458.693,356.008 457.848,356.008 C455.616,356.008 454.298,357.293 453.554,359.017 C452.911,357.327 451.694,356.211 449.801,355.974 C449.192,356.414 448.55,357.496 448.381,358.273 z" fill="#FFFFFF"/>
      <path d="M474.484,366.05 C474.755,365.002 474.856,364.258 474.856,362.94 C474.856,358.882 472.388,355.771 467.958,355.771 C462.92,355.771 460.655,359.626 460.655,364.698 C460.655,369.229 462.244,373.489 467.924,373.489 C470.291,373.489 472.726,372.779 474.417,371.562 C474.281,370.683 473.842,369.567 473.165,368.891 C471.745,369.533 470.224,370.04 468.601,370.04 C466.031,370.04 465.287,368.35 465.152,366.05 z M467.958,358.95 C469.953,358.95 470.731,360.573 470.731,362.534 L470.731,362.94 L465.118,362.94 C465.253,360.37 466.132,358.95 467.958,358.95 z" fill="#FFFFFF"/>
      <path d="M487.198,363.21 C487.739,363.345 488.246,363.379 488.99,363.379 C490.342,363.379 491.188,362.602 491.188,361.114 C491.188,358.273 488.787,355.771 484.831,355.771 C481.179,355.771 477.493,358.273 477.493,364.698 C477.493,369.736 479.827,373.489 484.696,373.489 C487.13,373.489 489.497,372.475 491.019,370.953 C490.816,370.04 490.004,368.857 489.294,368.417 C488.178,369.229 486.792,369.973 485.372,369.973 C483.208,369.973 482.024,368.519 482.024,364.698 C482.024,360.877 482.87,359.085 484.729,359.085 C486.826,359.085 487.232,360.809 487.198,363.21 z" fill="#FFFFFF"/>
      <path d="M499.945,359.66 C499.945,357.462 498.694,356.109 496.699,356.109 L496.124,356.109 C495.482,356.109 494.501,356.177 493.555,356.278 C493.419,356.786 493.352,357.36 493.352,357.868 C493.352,358.409 493.419,358.882 493.555,359.389 L493.994,359.389 C495.144,359.389 495.516,360.099 495.516,361.249 L495.516,373.016 C496.158,373.117 496.97,373.185 497.747,373.185 C498.525,373.185 499.337,373.117 499.945,373.016 z M494.501,351.477 C494.501,352.052 494.603,352.694 494.84,353.235 C495.279,353.506 496.26,353.709 497.037,353.709 C497.815,353.709 498.796,353.506 499.235,353.235 C499.472,352.694 499.573,352.052 499.573,351.477 C499.573,350.936 499.472,350.26 499.235,349.719 C498.796,349.448 497.815,349.279 497.037,349.279 C496.26,349.279 495.347,349.448 494.84,349.719 C494.603,350.26 494.501,350.902 494.501,351.477 z" fill="#FFFFFF"/>
      <path d="M518.982,364.427 C518.982,359.322 517.021,355.771 513.031,355.771 C511.239,355.771 509.65,356.549 508.5,357.699 C508.06,356.65 507.181,356.042 505.998,356.042 L504.747,356.042 L504.544,356.278 L504.544,380.083 L504.747,380.319 L506.471,380.319 C508.229,380.319 508.872,379.542 508.872,377.581 L508.872,372.407 C509.886,372.948 511.036,373.32 512.355,373.32 C515.837,373.32 518.982,370.345 518.982,364.427 z M511.949,359.355 C513.335,359.355 514.485,360.843 514.485,364.394 C514.485,368.012 513.403,369.939 511.645,369.939 C510.732,369.939 509.785,369.533 508.872,368.958 L508.872,361.114 C509.819,359.829 511.002,359.355 511.949,359.355 z" fill="#FFFFFF"/>
      <path d="M535.347,366.05 C535.618,365.002 535.719,364.258 535.719,362.94 C535.719,358.882 533.251,355.771 528.822,355.771 C523.783,355.771 521.518,359.626 521.518,364.698 C521.518,369.229 523.107,373.489 528.788,373.489 C531.155,373.489 533.589,372.779 535.28,371.562 C535.145,370.683 534.705,369.567 534.029,368.891 C532.609,369.533 531.087,370.04 529.464,370.04 C526.894,370.04 526.15,368.35 526.015,366.05 z M528.822,358.95 C530.817,358.95 531.594,360.573 531.594,362.534 L531.594,362.94 L525.981,362.94 C526.117,360.37 526.996,358.95 528.822,358.95 z" fill="#FFFFFF"/>
      <path d="M561.282,364.394 C561.282,359.457 559.287,355.907 555.365,355.907 C553.64,355.907 552.254,356.515 551.172,357.327 L551.172,350.868 C551.172,348.907 550.529,348.13 548.737,348.13 L547.081,348.13 L546.878,348.366 L546.878,372.171 C548.704,372.881 550.935,373.286 553.268,373.286 C557.935,373.286 561.316,370.108 561.282,364.394 z M554.147,359.525 C555.737,359.525 556.751,360.978 556.751,364.461 C556.751,368.079 555.5,370.074 553.302,370.074 C552.524,370.074 551.848,369.973 551.172,369.804 L551.172,361.012 C552.017,360.032 553.167,359.491 554.147,359.525 z" fill="#FFFFFF"/>
      <path d="M578.865,364.63 C578.865,361.756 578.256,359.457 576.464,357.665 C575.112,356.38 573.353,355.771 571.291,355.771 C569.262,355.771 567.504,356.38 566.151,357.665 C564.359,359.457 563.75,361.756 563.75,364.63 C563.75,367.504 564.359,369.77 566.151,371.562 C567.504,372.881 569.262,373.489 571.291,373.489 C573.353,373.489 575.112,372.881 576.464,371.562 C578.256,369.77 578.865,367.504 578.865,364.63 z M568.281,364.63 C568.281,361.655 568.822,359.085 571.324,359.085 C573.793,359.085 574.334,361.655 574.334,364.63 C574.334,367.572 573.793,370.142 571.324,370.142 C568.822,370.142 568.281,367.572 568.281,364.63 z" fill="#FFFFFF"/>
      <path d="M590.665,356.245 L587.859,360.843 L585.526,357.293 C584.951,356.38 584.41,355.907 583.294,355.907 C582.347,355.907 581.232,356.245 580.285,356.921 L585.12,364.427 L579.879,372.576 L580.014,372.847 C580.657,373.117 581.468,373.219 582.314,373.219 C582.99,373.219 583.666,373.151 584.106,373.016 L587.25,367.741 L590.023,371.968 C590.598,372.847 591.24,373.286 592.322,373.286 C593.337,373.286 594.486,372.881 595.365,372.306 L589.955,364.089 L594.723,356.684 L594.622,356.346 C593.979,356.177 593.269,356.042 592.424,356.042 C591.815,356.042 591.139,356.109 590.665,356.245 z" fill="#FFFFFF"/>
      <path d="M424.246,357.28 L424.246,358.387" fill="#FFFFFF"/>
    </g>
  </g>
</svg>
