<?xml version="1.0" encoding="UTF-8"?>
<!DOCTYPE svg PUBLIC "-//W3C//DTD SVG 1.1//EN" "http://www.w3.org/Graphics/SVG/1.1/DTD/svg11.dtd">
<svg version="1.1" xmlns="http://www.w3.org/2000/svg" xmlns:xlink="http://www.w3.org/1999/xlink" x="0" y="0" width="89.817" height="88.739" viewBox="0, 0, 89.817, 88.739">
  <g id="Layer_1" transform="translate(-239.183, -325.261)">
    <path d="M252.685,399.168 C251.874,399.168 251.153,398.621 251.005,397.842 L239.209,344.439 C239.156,344.155 239.183,343.863 239.287,343.594 C239.331,343.487 243.667,332.858 259.286,335.477 C261.707,332.984 270.259,325.262 283.359,325.262 C284.302,325.262 285.067,325.986 285.067,326.875 C285.067,327.768 284.302,328.488 283.359,328.488 C269.75,328.488 261.343,338.151 261.259,338.25 C260.855,338.721 260.2,338.938 259.578,338.816 C247.624,336.454 243.502,342.754 242.663,344.351 L254.368,397.27 C254.535,398.146 253.916,398.985 252.99,399.143 C252.886,399.161 252.785,399.168 252.685,399.168" fill="#FFFFFF"/>
    <path d="M314.595,399.31 C314.48,399.31 314.362,399.299 314.244,399.272 C313.322,399.08 312.73,398.175 312.922,397.253 L325.479,345.592 C323.989,343.391 317.725,335.407 307.422,339.529 C306.72,339.806 305.926,339.595 305.456,339.013 C305.376,338.912 297.665,329.531 285.066,328.734 L285.066,388.009 C285.066,388.954 284.301,389.717 283.358,389.717 C282.415,389.717 281.65,388.954 281.65,388.009 L281.65,326.969 C281.65,326.028 282.415,325.261 283.358,325.261 C296.227,325.261 304.708,333.156 307.297,335.936 C320.987,331.321 328.692,344.273 328.77,344.406 C328.98,344.768 329.051,345.199 328.963,345.611 L316.265,397.949 C316.098,398.758 315.387,399.31 314.595,399.31" fill="#FFFFFF"/>
    <path d="M268.732,390.018 C267.901,390.018 267.172,389.41 267.045,388.56 L258.238,338.194 C258.097,337.264 258.742,336.393 259.674,336.254 C260.623,336.118 261.477,336.759 261.616,337.689 L270.423,388.057 C270.564,388.991 269.918,389.858 268.987,389.999 C268.901,390.01 268.816,390.018 268.732,390.018" fill="#FFFFFF"/>
    <path d="M297.395,390.018 C297.312,390.018 297.226,390.01 297.141,389.999 C296.207,389.858 295.564,388.991 295.704,388.057 L304.512,337.689 C304.652,336.759 305.516,336.118 306.455,336.254 C307.389,336.393 308.03,337.264 307.892,338.194 L299.082,388.56 C298.955,389.41 298.226,390.018 297.395,390.018" fill="#FFFFFF"/>
    <path d="M255.157,398.71 C253.999,398.71 253.056,399.651 253.056,400.811 L253.056,408.479 C253.056,409.641 253.999,410.582 255.157,410.582 L312.285,410.582 C313.443,410.582 314.384,409.641 314.384,408.479 L314.384,400.811 C314.384,399.651 313.443,398.71 312.285,398.71 z M312.285,414 L255.157,414 C252.115,414 249.64,411.523 249.64,408.479 L249.64,400.811 C249.64,397.768 252.115,395.292 255.157,395.292 L312.285,395.292 C315.327,395.292 317.8,397.768 317.8,400.811 L317.8,408.479 C317.8,411.523 315.327,414 312.285,414" fill="#FFFFFF"/>
  </g>
</svg>
