<?xml version="1.0" encoding="utf-8"?>
<!-- Generator: Adobe Illustrator 19.1.0, SVG Export Plug-In . SVG Version: 6.00 Build 0)  -->
<svg version="1.1" id="Layer_1" xmlns="http://www.w3.org/2000/svg" xmlns:xlink="http://www.w3.org/1999/xlink" x="0px" y="0px"
	 viewBox="0 0 18 18" style="enable-background:new 0 0 18 18;" xml:space="preserve">
<style type="text/css">
	.st0{fill:#B2B2B2;}
</style>
<g>
	<path class="st0" d="M15.7,0H2.3C1,0,0,1,0,2.3v13.5C0,17,1,18,2.3,18h13.5c1.3,0,2.3-1,2.3-2.3V2.3C18,1,17,0,15.7,0z M9,6.4
		c1.5,0,2.6,1.2,2.6,2.6c0,1.5-1.2,2.6-2.6,2.6c-1.5,0-2.6-1.2-2.6-2.6C6.4,7.5,7.5,6.4,9,6.4z M15.9,14.8c0,0.6-0.6,1.1-1.2,1.1
		H3.3c-0.6,0-1.3-0.5-1.3-1.1V9.1C2.1,8.5,2.7,8,3.3,8H4C4.1,8,4.2,8,4.3,8.1c0.1,0.1,0.1,0.2,0.1,0.3c0,0.2,0,0.4,0,0.6
		c0,2.6,2.1,4.6,4.6,4.6c2.6,0,4.6-2.1,4.6-4.6c0-0.2,0-0.4,0-0.6c0-0.1,0-0.2,0.1-0.3C13.8,8,13.9,8,14,8h0.7
		c0.6,0,1.2,0.5,1.2,1.1L15.9,14.8L15.9,14.8L15.9,14.8z M15.9,4.3L15.9,4.3c0,0.6-0.5,1.1-1.1,1.1h-1.1c-0.6,0-1.1-0.5-1.1-1.1V3.2
		c0-0.6,0.5-1.1,1.1-1.1h1.1c0.6,0,1.1,0.5,1.1,1.1V4.3z"/>
</g>
</svg>
