<?xml version="1.0" encoding="utf-8"?>
<!-- Generator: Adobe Illustrator 19.1.0, SVG Export Plug-In . SVG Version: 6.00 Build 0)  -->
<svg version="1.1" id="Layer_1" xmlns="http://www.w3.org/2000/svg" xmlns:xlink="http://www.w3.org/1999/xlink" x="0px" y="0px"
	 viewBox="0 0 20 20" style="enable-background:new 0 0 20 20;" xml:space="preserve">
<style type="text/css">
	.st0{fill:#333333;}
</style>
<g id="milk_cow">
	<g>
		<circle class="st0" cx="8.8" cy="14.6" r="0.4"/>
		<circle class="st0" cx="11.3" cy="14.6" r="0.4"/>
		<path class="st0" d="M4.9,5.3c0.5-1.6,1.8-2.7,4.7-2.8C9,2,8.2,1.7,7.4,1.9C6.9,2,6.5,2.1,6.1,1.9C5.9,1.8,5.7,1.6,5.5,1.4
			C5.3,1.2,5.2,0.9,5,0.7L4.9,0.4C4.8,0.2,4.6,0.1,4.3,0c-0.4-0.1-0.9,0.2-1,0.7c-0.1,0.5-0.1,1-0.1,1.5c0,0.5,0.2,1,0.4,1.5
			C3.9,4.2,4.4,4.8,4.9,5.3z"/>
		<path class="st0" d="M16.6,0.7c0-0.2-0.2-0.4-0.4-0.6c-0.4-0.2-0.9-0.1-1.1,0.3L15,0.7c-0.1,0.2-0.3,0.5-0.5,0.7
			c-0.2,0.2-0.4,0.4-0.6,0.5c-0.4,0.2-0.8,0.2-1.2,0.1c-0.6-0.1-1.2-0.1-1.7,0.3c-0.2,0.1-0.3,0.2-0.4,0.3c2.9,0.1,4.2,1.2,4.7,2.8
			c0.5-0.5,1-1,1.2-1.6c0.2-0.5,0.3-1,0.4-1.5C16.8,1.6,16.7,1.2,16.6,0.7z"/>
		<path class="st0" d="M2.5,8.1L2.5,8.1c-0.6,0-1.3-0.2-2.1-0.6C0.1,7.4,0,7,0,6.7c0.5-2.9,2.3-3.3,3.3-3.3c1.1,0,2,0.5,2.1,0.5
			C5.7,4,5.9,4.4,5.8,4.8C5.6,6,4.6,8.1,2.5,8.1z M1.8,6.3c0.3,0.1,0.5,0.1,0.7,0.1c0.8,0,1.3-0.8,1.5-1.4C3.8,5,3.5,5,3.3,5
			C3,5,2.2,5,1.8,6.3z"/>
		<path class="st0" d="M17.5,8.1c-2.1,0-3.1-2.1-3.3-3.4c-0.1-0.4,0.1-0.7,0.4-0.9c0.1-0.1,1-0.5,2.1-0.5c1,0,2.8,0.4,3.3,3.3
			C20,7,19.9,7.4,19.6,7.5C18.8,7.9,18.1,8.1,17.5,8.1z M16,5.1c0.2,0.6,0.7,1.4,1.5,1.4c0.2,0,0.4,0,0.7-0.1C17.8,5,17,5,16.7,5
			C16.5,5,16.2,5,16,5.1z"/>
		<path class="st0" d="M16.3,7.5c0-2.5-0.6-5.8-6.3-5.8C4.4,1.7,3.8,5,3.8,7.5c0,1.5,0.5,2.4,1,3.3c0.4,0.7,0.7,1.3,0.8,2.1
			c-0.2,0.2-0.3,0.4-0.4,0.7C5,13.8,5,14,5,14.2v2.1c0,0.6,0.2,1.1,0.7,1.5c0.4,0.4,1,0.6,1.5,0.6l0,0v0c0.8,0,2.3-0.3,2.8-0.4
			c0.4,0.1,1.8,0.4,2.6,0.4l0.2,0l0,0l0.1,0c1.2-0.1,2.1-1,2.1-2.1v-2.1c0-0.2,0-0.4-0.1-0.6c-0.1-0.2-0.2-0.4-0.4-0.6
			c0.1-0.8,0.4-1.4,0.8-2.1C15.7,9.9,16.3,9,16.3,7.5z M7.9,6.7c0.5,0,0.8,0.4,0.8,0.8c0,0.5-0.4,0.8-0.8,0.8C7.5,8.3,7.1,8,7.1,7.5
			C7.1,7,7.5,6.7,7.9,6.7z M13.3,16.3c0,0.2-0.2,0.4-0.4,0.4l-0.1,0c-0.1,0-0.1,0-0.2,0c-0.8,0-2.1-0.3-2.3-0.4c-0.1,0-0.2,0-0.3,0
			c-0.1,0-0.3,0-0.3,0c-0.4,0.1-1.8,0.4-2.5,0.4v0l0,0c-0.2,0-0.3-0.1-0.4-0.2c-0.1-0.1-0.1-0.1-0.1-0.3v-2.1c0,0,0,0,0-0.1
			c0,0,0.1-0.1,0.1-0.1l0.1-0.1c0.6-0.5,1.8-0.9,3.1-0.9c1.3,0,2.5,0.4,3.1,0.9l0.1,0.1c0,0,0.1,0.1,0.1,0.2c0,0.1,0,0.1,0,0.1V16.3
			z M12.5,10C12.5,10,12.5,10,12.5,10h-0.9C10.7,10,10,9.3,10,8.3V6.7C10,5.7,10.7,5,11.7,5h0.3c0.7,0,1.4,0.5,1.6,1.1L14,7.6
			c0.1,0.2,0.2,0.5,0.2,0.7C14.2,9.3,13.4,10,12.5,10z"/>
		<circle class="st0" cx="12.1" cy="7.5" r="0.8"/>
		<path class="st0" d="M10,20C10,20,10,20,10,20c-0.3,0-1.8,0-2.7-0.9c-0.4-0.4-0.6-1-0.6-1.6l1.7,0c0,0.2,0,0.3,0.1,0.4
			c0.3,0.3,1.2,0.4,1.5,0.4h0l0,0c0,0,0,0,0,0l0,0c0,0,0,0,0,0l0,0c0,0,0,0,0,0c0.4,0,1.2-0.1,1.5-0.4c0.1-0.1,0.1-0.2,0.1-0.4
			l1.7,0c0,0.6-0.2,1.1-0.6,1.6C11.8,20,10.3,20,10,20z"/>
	</g>
</g>
</svg>
