<?xml version="1.0" encoding="utf-8"?>
<!-- Generator: Adobe Illustrator 19.1.0, SVG Export Plug-In . SVG Version: 6.00 Build 0)  -->
<svg version="1.1" id="Layer_1" xmlns="http://www.w3.org/2000/svg" xmlns:xlink="http://www.w3.org/1999/xlink" x="0px" y="0px"
	 viewBox="0 0 14 14" style="enable-background:new 0 0 14 14;" xml:space="preserve">
<style type="text/css">
	.st0{fill:#FFFFFF;}
</style>
<g>
	<path class="st0" d="M9,4.9h4c0.3,0,0.5,0.1,0.6,0.3c0.1,0.2,0.3,0.4,0.3,0.7C14,6.2,14,6.5,14,6.9c0,0.4,0,0.7-0.1,1
		c-0.1,0.3-0.2,0.5-0.3,0.7C13.4,8.8,13.2,9,12.9,9H9v4c0,0.3-0.1,0.5-0.3,0.6c-0.2,0.1-0.4,0.2-0.7,0.3C7.7,14,7.4,14,7,14
		c-0.4,0-0.7,0-1-0.1c-0.3-0.1-0.5-0.2-0.7-0.3c-0.2-0.1-0.3-0.4-0.3-0.7V9H1C0.8,9,0.6,8.8,0.4,8.6C0.3,8.4,0.2,8.2,0.1,7.9
		C0,7.6,0,7.3,0,6.9c0-0.4,0-0.7,0.1-1c0-0.3,0.1-0.5,0.3-0.7S0.7,4.9,1,4.9h3.9V1c0-0.3,0.1-0.5,0.3-0.6c0.2-0.1,0.5-0.3,0.7-0.3
		C6.2,0,6.6,0,7,0c0.4,0,0.7,0,1,0.1c0.3,0,0.5,0.1,0.7,0.3C8.9,0.5,9,0.7,9,1V4.9z"/>
</g>
</svg>
