<?xml version="1.0" encoding="UTF-8"?>
<!DOCTYPE svg PUBLIC "-//W3C//DTD SVG 1.1//EN" "http://www.w3.org/Graphics/SVG/1.1/DTD/svg11.dtd">
<svg version="1.1" xmlns="http://www.w3.org/2000/svg" xmlns:xlink="http://www.w3.org/1999/xlink" x="0" y="0" width="18" height="18" viewBox="0, 0, 18, 18">
  <g id="Layer_1" transform="translate(-8, -8)">
    <path d="M8,10 L8,24 C8,25.104 8.896,26 10,26 L24,26 C25.104,26 26,25.104 26,24 L26,10 C26,8.896 25.104,8 24,8 L10,8 C8.896,8 8,8.896 8,10 z M24,24 L10,24 L10,10 L24,10 L24,24 z M13,18 L16,18 L16,21 C16,21.552 16.448,22 17,22 C17.552,22 18,21.552 18,21 L18,18 L21,18 C21.552,18 22,17.552 22,17 C22,16.448 21.552,16 21,16 L18,16 L18,13 C18,12.448 17.552,12 17,12 C16.448,12 16,12.448 16,13 L16,16 L13,16 C12.448,16 12,16.448 12,17 C12,17.552 12.448,18 13,18 z" fill="#FFFFFF"/>
  </g>
</svg>
