<?xml version="1.0" encoding="utf-8"?>
<!-- Generator: Adobe Illustrator 19.1.0, SVG Export Plug-In . SVG Version: 6.00 Build 0)  -->
<svg version="1.1" id="Layer_1" xmlns="http://www.w3.org/2000/svg" xmlns:xlink="http://www.w3.org/1999/xlink" x="0px" y="0px"
	 viewBox="0 0 12 12" style="enable-background:new 0 0 12 12;" xml:space="preserve">
<style type="text/css">
	.st0{fill:#333333;}
</style>
<g>
	<path class="st0" d="M6.5,10.8c-1.4,0-2.8-0.5-3.8-1.6C1.6,8.2,1,6.9,1,5.4s0.6-2.8,1.6-3.8c2.1-2.1,5.5-2.1,7.7,0
		c1,1,1.6,2.4,1.6,3.8c0,1.4-0.6,2.8-1.6,3.8l0,0l0,0C9.2,10.3,7.9,10.8,6.5,10.8z M6.5,2C5.6,2,4.7,2.3,4,3C3.4,3.6,3,4.5,3,5.4
		c0,0.9,0.4,1.8,1,2.4c1.3,1.3,3.5,1.3,4.8,0l0,0c0.6-0.6,1-1.5,1-2.4c0-0.9-0.4-1.8-1-2.4C8.2,2.3,7.3,2,6.5,2z"/>
	<path class="st0" d="M1.1,12c-0.3,0-0.5-0.1-0.7-0.3c-0.4-0.4-0.4-1,0-1.4l2.2-2.2c0.4-0.4,1-0.4,1.4,0c0.4,0.4,0.4,1,0,1.4
		l-2.2,2.2C1.6,11.9,1.4,12,1.1,12z"/>
</g>
</svg>
